<?xml version="1.0" encoding="UTF-8" standalone="no"?>
<svg width="64px" height="144px" viewBox="0 0 64 144" version="1.1" xmlns="http://www.w3.org/2000/svg" xmlns:xlink="http://www.w3.org/1999/xlink" xmlns:sketch="http://www.bohemiancoding.com/sketch/ns">
    <!-- Generator: Sketch 3.4.4 (17249) - http://www.bohemiancoding.com/sketch -->
    <title>top-menu-sprite</title>
    <desc>Created with Sketch.</desc>
    <defs></defs>
    <g id="assets" stroke="none" stroke-width="1" fill="none" fill-rule="evenodd" sketch:type="MSPage">
        <g id="top-menu-sprite" sketch:type="MSArtboardGroup">
            <path d="M13,14.6666667 C13,11.3529582 10.7614237,8.66666667 8,8.66666667 C5.23857625,8.66666667 3,11.3529582 3,14.6666667 L13,14.6666667 Z M8,8 C9.65685425,8 11,6.65685425 11,5 C11,3.34314575 9.65685425,2 8,2 C6.34314575,2 5,3.34314575 5,5 C5,6.65685425 6.34314575,8 8,8 Z" id="Oval-5" fill="#0099FF" sketch:type="MSShapeGroup"></path>
            <path d="M45,14.6666667 C45,11.3529582 42.7614237,8.66666667 40,8.66666667 C37.2385763,8.66666667 35,11.3529582 35,14.6666667 L45,14.6666667 Z M40,8 C41.6568542,8 43,6.65685425 43,5 C43,3.34314575 41.6568542,2 40,2 C38.3431458,2 37,3.34314575 37,5 C37,6.65685425 38.3431458,8 40,8 Z" id="Oval-5-Copy" fill="#FFFFFF" sketch:type="MSShapeGroup"></path>
            <path d="M30,7.9311099 L30,7.70147622 C28.8671348,7.57900431 28.2985238,7.51776927 28.2941498,7.51776927 C28.2679058,7.51776927 27.9792264,7.54619983 27.4281028,7.60306178 L27.7561509,8.23291416 L26.9163477,8.53471843 L26.4373975,7.45215965 L26.2864954,7.54401312 C26.5576831,8.04264875 26.7063968,8.52378117 26.7326408,8.98742482 C26.452705,9.31984857 26.1727734,9.65882823 25.8928376,10.004374 C25.8972116,10.7435794 25.8184809,11.4149778 25.656643,12.0185894 L24.8168398,12.7402952 L24.2132313,12.3466375 C24.1607433,11.5024561 24.0207775,10.6517265 23.7933297,9.79442318 L23.2815746,9.07271733 L22.1399672,8.80371788 L21.8447239,8.11481684 L22.0415528,7.11755057 C22.3739765,7.02132265 22.848548,6.84417844 23.4652816,6.58611263 C23.6096235,6.68671455 23.7933286,6.75451049 24.0164024,6.78950246 C24.2088583,6.82012044 24.4013112,6.84855099 24.5937671,6.87479497 C24.5981411,6.87479497 24.8736987,6.95133876 25.4204483,7.10442865 C25.7441241,7.19190858 26.0262426,7.24220879 26.2668125,7.25533078 L26.5358119,6.59923455 L26.2077638,6.59923455 L26.0174959,5.58884636 L25.1973756,5.55604155 L25.2498633,5.88408967 L25.6632039,6.40896665 L25.3351558,6.24494259 L25.4138874,6.4876982 L24.8365227,6.6254784 L25.0595954,6.46145435 L24.8955714,5.99562603 L24.5084746,5.72006561 L24.2066703,5.99562603 L23.7670858,5.91689448 L23.4980864,6.40896665 L22.9994533,6.15965008 L23.38655,5.69382176 L23.9639147,5.5297977 L24.2066703,5.17550574 L25.0595954,4.78840897 L25.2498633,4.57189721 L25.4401312,3.77802078 L24.9218152,4.04045927 L25.1580098,4.17167851 L24.790596,4.51284855 L24.6593767,4.14543466 L24.4756698,4.434117 L23.9245489,3.96172772 L25.1055221,2.93821761 L26.0765446,2.93821761 L26.18152,2.36741389 C25.5254204,2.12247007 24.8452742,2 24.1410607,2 C23.3581153,2 22.7107735,2.10716131 22.1990159,2.32148715 C22.3171138,2.41334108 22.3761618,2.5139415 22.3761618,2.62329142 C22.3761618,2.67577938 22.3236747,2.71514476 22.2186987,2.74138874 C22.1443408,2.75451073 22.069984,2.76763252 21.995626,2.78075451 C21.7900482,2.84636446 21.581193,2.96118015 21.3690541,3.12520503 C21.1569153,3.28922991 20.9611819,3.58337677 20.781848,4.00765446 C20.6375061,4.34007821 20.4822316,4.50628759 20.3160197,4.50628759 C20.2110438,4.50628759 20.1180977,4.41771548 20.0371788,4.24056862 C19.9562598,4.06342175 19.913614,3.97484964 19.90924,3.97484964 C19.7474021,3.97484964 19.6030624,4.01640199 19.4762165,4.09950793 C19.1219228,4.33570375 18.789504,4.85182762 18.4789502,5.64789502 C18.1596485,6.46583241 18,7.24439215 18,7.98359759 C18,9.62822036 18.5839198,11.01585 19.7517769,12.1465282 C20.9196341,13.2772063 22.3280399,13.8425369 23.9770366,13.8425369 C25.6260334,13.8425369 27.0420936,13.2684584 28.2252597,12.1202843 C29.4084258,10.9721102 30,9.57573266 30,7.9311099 Z M24.2854019,4.70967742 L23.9901586,5.01148168 L23.7145981,4.98523783 L23.9639147,4.68343357 L23.7998907,4.62438491 L23.6227447,4.30289776 L23.7211591,4.05358119 L24.2854019,4.70967742 Z M22.9994533,3.81082559 L22.7829415,3.97484964 L22.4220886,4.02733734 L22.5598688,3.56150902 L22.9207217,3.56150902 L22.9994533,3.81082559 Z M23.5243302,4.73592127 L23.3340623,4.95243302 L23.2487698,4.70967742 L23.38655,4.4866047 L23.5243302,4.73592127 Z M24.6200109,6.3827228 L24.5937671,6.65172225 L24.3444505,6.3827228 L24.6200109,6.3827228 Z" id="-" fill="#0099FF" sketch:type="MSShapeGroup"></path>
            <path d="M62,7.9311099 L62,7.70147622 C60.8671348,7.57900431 60.2985238,7.51776927 60.2941498,7.51776927 C60.2679058,7.51776927 59.9792264,7.54619983 59.4281028,7.60306178 L59.7561509,8.23291416 L58.9163477,8.53471843 L58.4373975,7.45215965 L58.2864954,7.54401312 C58.5576831,8.04264875 58.7063968,8.52378117 58.7326408,8.98742482 C58.452705,9.31984857 58.1727734,9.65882823 57.8928376,10.004374 C57.8972116,10.7435794 57.8184809,11.4149778 57.656643,12.0185894 L56.8168398,12.7402952 L56.2132313,12.3466375 C56.1607433,11.5024561 56.0207775,10.6517265 55.7933297,9.79442318 L55.2815746,9.07271733 L54.1399672,8.80371788 L53.8447239,8.11481684 L54.0415528,7.11755057 C54.3739765,7.02132265 54.848548,6.84417844 55.4652816,6.58611263 C55.6096235,6.68671455 55.7933286,6.75451049 56.0164024,6.78950246 C56.2088583,6.82012044 56.4013112,6.84855099 56.5937671,6.87479497 C56.5981411,6.87479497 56.8736987,6.95133876 57.4204483,7.10442865 C57.7441241,7.19190858 58.0262426,7.24220879 58.2668125,7.25533078 L58.5358119,6.59923455 L58.2077638,6.59923455 L58.0174959,5.58884636 L57.1973756,5.55604155 L57.2498633,5.88408967 L57.6632039,6.40896665 L57.3351558,6.24494259 L57.4138874,6.4876982 L56.8365227,6.6254784 L57.0595954,6.46145435 L56.8955714,5.99562603 L56.5084746,5.72006561 L56.2066703,5.99562603 L55.7670858,5.91689448 L55.4980864,6.40896665 L54.9994533,6.15965008 L55.38655,5.69382176 L55.9639147,5.5297977 L56.2066703,5.17550574 L57.0595954,4.78840897 L57.2498633,4.57189721 L57.4401312,3.77802078 L56.9218152,4.04045927 L57.1580098,4.17167851 L56.790596,4.51284855 L56.6593767,4.14543466 L56.4756698,4.434117 L55.9245489,3.96172772 L57.1055221,2.93821761 L58.0765446,2.93821761 L58.18152,2.36741389 C57.5254204,2.12247007 56.8452742,2 56.1410607,2 C55.3581153,2 54.7107735,2.10716131 54.1990159,2.32148715 C54.3171138,2.41334108 54.3761618,2.5139415 54.3761618,2.62329142 C54.3761618,2.67577938 54.3236747,2.71514476 54.2186987,2.74138874 C54.1443408,2.75451073 54.069984,2.76763252 53.995626,2.78075451 C53.7900482,2.84636446 53.581193,2.96118015 53.3690541,3.12520503 C53.1569153,3.28922991 52.9611819,3.58337677 52.781848,4.00765446 C52.6375061,4.34007821 52.4822316,4.50628759 52.3160197,4.50628759 C52.2110438,4.50628759 52.1180977,4.41771548 52.0371788,4.24056862 C51.9562598,4.06342175 51.913614,3.97484964 51.90924,3.97484964 C51.7474021,3.97484964 51.6030624,4.01640199 51.4762165,4.09950793 C51.1219228,4.33570375 50.789504,4.85182762 50.4789502,5.64789502 C50.1596485,6.46583241 50,7.24439215 50,7.98359759 C50,9.62822036 50.5839198,11.01585 51.7517769,12.1465282 C52.9196341,13.2772063 54.3280399,13.8425369 55.9770366,13.8425369 C57.6260334,13.8425369 59.0420936,13.2684584 60.2252597,12.1202843 C61.4084258,10.9721102 62,9.57573266 62,7.9311099 Z M56.2854019,4.70967742 L55.9901586,5.01148168 L55.7145981,4.98523783 L55.9639147,4.68343357 L55.7998907,4.62438491 L55.6227447,4.30289776 L55.7211591,4.05358119 L56.2854019,4.70967742 Z M54.9994533,3.81082559 L54.7829415,3.97484964 L54.4220886,4.02733734 L54.5598688,3.56150902 L54.9207217,3.56150902 L54.9994533,3.81082559 Z M55.5243302,4.73592127 L55.3340623,4.95243302 L55.2487698,4.70967742 L55.38655,4.4866047 L55.5243302,4.73592127 Z M56.6200109,6.3827228 L56.5937671,6.65172225 L56.3444505,6.3827228 L56.6200109,6.3827228 Z" id="--copy" fill="#FFFFFF" sketch:type="MSShapeGroup"></path>
            <path d="M30.1202927,7.95722053 C30.1202927,9.61235883 29.5245766,11.0179577 28.3331265,12.1740593 C27.1416764,13.330161 25.7163243,13.9082031 24.0570274,13.9082031 C22.3977304,13.9082031 20.9734179,13.330161 19.7840472,12.1740593 C18.5946765,11.0179577 18,9.61235883 18,7.95722053 C18,6.30208222 18.5967557,4.89232476 19.7902851,3.72790585 C20.9754972,2.57596286 22.3977304,2 24.0570274,2 C25.7163243,2 27.1385575,2.57596286 28.3237696,3.72790585 C29.5214576,4.89232476 30.1202927,6.30208222 30.1202927,7.95722053 L30.1202927,7.95722053 Z" id="Path-Copy-2" stroke="#0099FF" sketch:type="MSShapeGroup"></path>
            <path d="M62.1202927,7.95722053 C62.1202927,9.61235883 61.5245766,11.0179577 60.3331265,12.1740593 C59.1416764,13.330161 57.7163243,13.9082031 56.0570274,13.9082031 C54.3977304,13.9082031 52.9734179,13.330161 51.7840472,12.1740593 C50.5946765,11.0179577 50,9.61235883 50,7.95722053 C50,6.30208222 50.5967557,4.89232476 51.7902851,3.72790585 C52.9754972,2.57596286 54.3977304,2 56.0570274,2 C57.7163243,2 59.1385575,2.57596286 60.3237696,3.72790585 C61.5214576,4.89232476 62.1202927,6.30208222 62.1202927,7.95722053 L62.1202927,7.95722053 Z" id="Path-Copy-3" stroke="#FFFFFF" sketch:type="MSShapeGroup"></path>
            <path d="M25,43.8 C25,37.8353247 20.9705627,33 16,33 C11.0294373,33 7,37.8353247 7,43.8 L25,43.8 Z M16,31.8 C18.9823376,31.8 21.4,29.3823376 21.4,26.4 C21.4,23.4176624 18.9823376,21 16,21 C13.0176624,21 10.6,23.4176624 10.6,26.4 C10.6,29.3823376 13.0176624,31.8 16,31.8 Z" id="icn-username" fill="#00C6FF" sketch:type="MSShapeGroup"></path>
            <g id="Rectangle-226-+-Shape" sketch:type="MSLayerGroup" transform="translate(8.000000, 54.000000)" fill="#00C6FF">
                <rect id="Rectangle-226" sketch:type="MSShapeGroup" x="0" y="7.2" width="17" height="12"></rect>
                <path d="M8.40909091,14.2 C11.9731836,14.2 14.8181818,11.0442037 14.8181818,7.2 C14.8181818,2.93427284 12.671953,0.2 8.40909091,0.2 C4.14622882,0.2 2,2.93427284 2,7.2 C2,11.0442037 4.84499822,14.2 8.40909091,14.2 L8.40909091,14.2 Z M8.40909091,12.2 C5.99846676,12.2 4,9.98321334 4,7.2 C4,3.94718548 5.37142855,2.2 8.40909091,2.2 C11.4467533,2.2 12.8181818,3.94718548 12.8181818,7.2 C12.8181818,9.98321334 10.8197151,12.2 8.40909091,12.2 L8.40909091,12.2 Z" id="Shape" sketch:type="MSShapeGroup"></path>
            </g>
            <g id="Rectangle-226-+-Shape" sketch:type="MSLayerGroup" transform="translate(8.000000, 118.000000)" fill="#E72B44">
                <rect id="Rectangle-226" sketch:type="MSShapeGroup" x="0" y="7.2" width="17" height="12"></rect>
                <path d="M8.40909091,14.2 C11.9731836,14.2 14.8181818,11.0442037 14.8181818,7.2 C14.8181818,2.93427284 12.671953,0.2 8.40909091,0.2 C4.14622882,0.2 2,2.93427284 2,7.2 C2,11.0442037 4.84499822,14.2 8.40909091,14.2 L8.40909091,14.2 Z M8.40909091,12.2 C5.99846676,12.2 4,9.98321334 4,7.2 C4,3.94718548 5.37142855,2.2 8.40909091,2.2 C11.4467533,2.2 12.8181818,3.94718548 12.8181818,7.2 C12.8181818,9.98321334 10.8197151,12.2 8.40909091,12.2 L8.40909091,12.2 Z" id="Shape" sketch:type="MSShapeGroup"></path>
            </g>
            <path d="M25,107.8 C25,101.835325 20.9705627,97 16,97 C11.0294373,97 7,101.835325 7,107.8 L25,107.8 Z M16,95.8 C18.9823376,95.8 21.4,93.3823376 21.4,90.4 C21.4,87.4176624 18.9823376,85 16,85 C13.0176624,85 10.6,87.4176624 10.6,90.4 C10.6,93.3823376 13.0176624,95.8 16,95.8 Z" id="icn-username" fill="#E72B44" sketch:type="MSShapeGroup"></path>
        </g>
    </g>
</svg>