<?xml version="1.0" encoding="UTF-8" standalone="no"?>
<svg width="138px" height="152px" viewBox="0 0 138 152" version="1.1" xmlns="http://www.w3.org/2000/svg" xmlns:xlink="http://www.w3.org/1999/xlink" xmlns:sketch="http://www.bohemiancoding.com/sketch/ns">
    <!-- Generator: Sketch 3.2.1 (9971) - http://www.bohemiancoding.com/sketch -->
    <title>Sad_book_icon</title>
    <desc>Created with Sketch.</desc>
    <defs></defs>
    <g id="assets" stroke="none" stroke-width="1" fill="none" fill-rule="evenodd" sketch:type="MSPage">
        <g id="Sad_book_icon" sketch:type="MSArtboardGroup">
            <g id="sad_book" sketch:type="MSLayerGroup">
                <path d="M1,11.5000003 C1,11.5000003 1,0.4991782 14.5,0.4991782 C28,0.4991782 137.5,0.539606719 137.5,0.539606719 L137.5,137.000002 C137.5,137.000002 134.5,136.959566 130,140.500002 C125.5,144.040438 125.5,150.500002 125.5,150.500002" id="Path-130" stroke="#E7E7E7" stroke-width="3" sketch:type="MSShapeGroup"></path>
                <path d="M10.5,8.53960672 C24,8.53960672 128.5,8.53959945 128.5,8.53959945 L128.5,144.999995" id="Path-131" stroke="#E7E7E7" sketch:type="MSShapeGroup"></path>
                <path d="M14.5,4.53960672 C28,4.53960672 132.5,4.53959945 132.5,4.53959945 L132.5,140.999995" id="Path-132" stroke="#E7E7E7" sketch:type="MSShapeGroup"></path>
                <rect id="Rectangle-83" fill="#E7E7E7" sketch:type="MSShapeGroup" x="0" y="12" width="125" height="140"></rect>
                <circle id="Oval-1" fill="#909090" sketch:type="MSShapeGroup" cx="38" cy="61" r="5"></circle>
                <circle id="Oval-1" fill="#909090" sketch:type="MSShapeGroup" cx="79" cy="61" r="5"></circle>
                <path d="M91,60 C91,53.9248678 86.0751322,49 80,49" id="Oval-1" stroke="#909090" stroke-width="2" sketch:type="MSShapeGroup"></path>
                <path d="M38,60 C38,53.9248678 33.0751322,49 27,49" id="Oval-2" stroke="#909090" stroke-width="2" sketch:type="MSShapeGroup" transform="translate(32.500000, 54.500000) scale(-1, 1) translate(-32.500000, -54.500000) "></path>
                <path d="M32.5,98 C32.5,98 34.5,87.5 59,87.5 C83.5,87.5 85.5,98 85.5,98" id="Line" stroke="#979797" stroke-width="3" stroke-linecap="square" sketch:type="MSShapeGroup"></path>
            </g>
        </g>
    </g>
</svg>