<?xml version="1.0" encoding="UTF-8" standalone="no"?>
<svg width="100px" height="100px" viewBox="0 0 100 100" version="1.1" xmlns="http://www.w3.org/2000/svg" xmlns:xlink="http://www.w3.org/1999/xlink" xmlns:sketch="http://www.bohemiancoding.com/sketch/ns">
    <!-- Generator: Sketch 3.4 (15575) - http://www.bohemiancoding.com/sketch -->
    <title>slovoed-big-logo</title>
    <desc>Created with Sketch.</desc>
    <defs>
        <linearGradient x1="49.9864671%" y1="0.302585488%" x2="49.9864671%" y2="99.7231026%" id="linearGradient-1">
            <stop stop-color="#FFCC00" offset="0%"></stop>
            <stop stop-color="#FFF685" offset="97%"></stop>
        </linearGradient>
        <linearGradient x1="50.031925%" y1="0.430308077%" x2="50.031925%" y2="95.7150641%" id="linearGradient-2">
            <stop stop-color="#FF6600" offset="0%"></stop>
            <stop stop-color="#F15B5B" offset="100%"></stop>
        </linearGradient>
        <linearGradient x1="49.9869449%" y1="0.296580484%" x2="49.9869449%" y2="99.7170976%" id="linearGradient-3">
            <stop stop-color="#63FB93" offset="0%"></stop>
            <stop stop-color="#33FF33" offset="94%"></stop>
        </linearGradient>
        <linearGradient x1="49.9864671%" y1="0.296580484%" x2="49.9864671%" y2="99.7170976%" id="linearGradient-4">
            <stop stop-color="#00FFFF" offset="0%"></stop>
            <stop stop-color="#0099FF" offset="93%"></stop>
        </linearGradient>
        <linearGradient x1="49.9712101%" y1="99.2631408%" x2="49.9712101%" y2="-0.722213181%" id="linearGradient-5">
            <stop stop-color="#35F6FF" offset="0%"></stop>
            <stop stop-color="#33FFFF" offset="99%"></stop>
        </linearGradient>
        <linearGradient x1="49.7074597%" y1="99.2054103%" x2="50.4239782%" y2="-0.680072137%" id="linearGradient-6">
            <stop stop-color="#35D6FF" offset="0%"></stop>
            <stop stop-color="#33F7FF" offset="99%"></stop>
        </linearGradient>
    </defs>
    <g id="assets" stroke="none" stroke-width="1" fill="none" fill-rule="evenodd" sketch:type="MSPage">
        <g id="slovoed-big-logo" sketch:type="MSArtboardGroup">
            <g id="Group" sketch:type="MSLayerGroup" transform="translate(1.000000, 1.000000)">
                <path d="M71.1268041,65.5919192 L80.0247423,74.4373737 L80.0247423,56.6060606 C87.5103093,48.3222222 87.2278351,35.4050505 79.1773196,27.4020202 L58.1329897,6.62222222 C49.8,-1.66161616 36.2412371,-1.66161616 27.9082474,6.62222222 L6.86391753,27.4020202 C-1.46907216,35.6858586 -1.46907216,49.1646465 6.86391753,57.4484848 L27.9082474,78.3686869 C36.2412371,86.6525253 49.8,86.6525253 58.1329897,78.3686869 L71.1268041,65.5919192 L71.1268041,65.5919192 Z" id="Shape" fill="url(#linearGradient-1)" sketch:type="MSShapeGroup"></path>
                <path d="M82.9907216,65.7323232 L91.8886598,74.5777778 L91.8886598,56.7464646 C99.3742268,48.4626263 99.0917526,35.5454545 91.0412371,27.5424242 L69.9969072,6.62222222 C61.6639175,-1.66161616 48.1051546,-1.66161616 39.7721649,6.62222222 L18.7278351,27.5424242 C10.3948454,35.8262626 10.3948454,49.3050505 18.7278351,57.5888889 L39.7721649,78.5090909 C48.1051546,86.7929293 61.6639175,86.7929293 69.9969072,78.5090909 L82.9907216,65.7323232 L82.9907216,65.7323232 Z" id="Shape" fill="url(#linearGradient-2)" sketch:type="MSShapeGroup"></path>
                <path d="M82.8494845,78.0878788 L91.7474227,86.9333333 L91.7474227,69.1020202 C99.2329897,60.8181818 98.9505155,47.9010101 90.9,39.8979798 L69.9969072,19.1181818 C61.6639175,10.8343434 48.1051546,10.8343434 39.7721649,19.1181818 L18.7278351,39.8979798 C10.3948454,48.1818182 10.3948454,61.6606061 18.7278351,69.9444444 L39.7721649,90.8646465 C48.1051546,99.1484848 61.6639175,99.1484848 69.9969072,90.8646465 L82.8494845,78.0878788 L82.8494845,78.0878788 Z" id="Shape" fill="url(#linearGradient-3)" sketch:type="MSShapeGroup"></path>
                <path d="M96.2670103,48.7434343 C95.4195876,51.6919192 93.8659794,54.359596 91.7474227,56.7464646 L91.7474227,74.5777778 L82.8494845,65.7323232 L69.8556701,78.6494949 C61.5226804,86.9333333 47.9639175,86.9333333 39.6309278,78.6494949 L18.7278351,57.5888889 C16.185567,55.0616162 14.4907216,52.1131313 13.5020619,49.0242424 C14.4907216,45.7949495 16.3268041,42.7060606 18.8690722,40.1787879 L39.9134021,19.2585859 C48.2463918,10.9747475 61.8051546,10.9747475 70.1381443,19.2585859 L91.0412371,40.1787879 C93.5835052,42.7060606 95.2783505,45.6545455 96.2670103,48.7434343 L96.2670103,48.7434343 Z" id="Shape" fill="#44600E" sketch:type="MSShapeGroup"></path>
                <path d="M71.1268041,78.0878788 L80.0247423,86.9333333 L80.0247423,69.1020202 C87.5103093,60.8181818 87.2278351,47.9010101 79.1773196,39.8979798 L58.1329897,19.1181818 C49.8,10.8343434 36.2412371,10.8343434 27.9082474,19.1181818 L6.86391753,39.8979798 C-1.46907216,48.1818182 -1.46907216,61.6606061 6.86391753,69.9444444 L27.9082474,90.8646465 C36.2412371,99.1484848 49.8,99.1484848 58.1329897,90.8646465 L71.1268041,78.0878788 L71.1268041,78.0878788 Z" id="Shape" fill="url(#linearGradient-4)" sketch:type="MSShapeGroup"></path>
                <path d="M80.0247423,69.2424242 L80.0247423,81.1767677 L77.0587629,84.1252525 L70.985567,78.0878788 L57.9917526,91.0050505 C55.3082474,93.6727273 52.0597938,95.4979798 48.6701031,96.4808081 C45.4216495,95.4979798 42.314433,93.6727273 39.6309278,91.1454545 L18.7278351,70.2252525 C10.3948454,61.9414141 10.3948454,48.4626263 18.7278351,40.1787879 L39.7721649,19.2585859 C42.4556701,16.5909091 45.7041237,14.7656566 49.0938144,13.7828283 C52.342268,14.7656566 55.4494845,16.5909091 58.1329897,19.1181818 L79.1773196,40.0383838 C87.2278351,48.0414141 87.5103093,60.9585859 80.0247423,69.2424242 L80.0247423,69.2424242 Z" id="Shape" fill="#009832" sketch:type="MSShapeGroup"></path>
                <path d="M84.5443299,48.8838384 C83.6969072,51.6919192 82.143299,54.359596 80.0247423,56.7464646 L80.0247423,74.5777778 L71.1268041,65.7323232 L58.1329897,78.6494949 C49.8,86.9333333 36.2412371,86.9333333 27.9082474,78.6494949 L6.86391753,57.5888889 C4.32164948,55.0616162 2.48556701,51.9727273 1.49690722,48.8838384 C2.48556701,45.6545455 4.32164948,42.7060606 6.86391753,40.1787879 L27.9082474,19.2585859 C36.2412371,10.9747475 49.8,10.9747475 58.1329897,19.2585859 L79.1773196,40.1787879 C81.7195876,42.5656566 83.5556701,45.6545455 84.5443299,48.8838384 L84.5443299,48.8838384 Z" id="Shape" fill="#01C43A" sketch:type="MSShapeGroup"></path>
                <path d="M80.0247423,56.7464646 L80.0247423,74.5777778 L76.9175258,71.4888889 L70.985567,65.5919192 L57.9917526,78.5090909 C55.3082474,81.1767677 52.2010309,83.0020202 48.8113402,83.9848485 C45.4216495,83.0020202 42.1731959,81.1767677 39.6309278,78.5090909 L18.7278351,57.5888889 C10.3948454,49.3050505 10.3948454,35.8262626 18.7278351,27.5424242 L39.7721649,6.62222222 C42.4556701,3.95454545 45.5628866,2.12929293 48.9525773,1.14646465 C52.342268,2.12929293 55.4494845,3.95454545 58.1329897,6.62222222 L79.1773196,27.5424242 C87.2278351,35.5454545 87.5103093,48.3222222 80.0247423,56.7464646 L80.0247423,56.7464646 Z" id="Shape" fill="#FE4D00" sketch:type="MSShapeGroup"></path>
                <path d="M77.7649485,73.3141414 L86.9453608,82.440404 L86.9453608,64.1878788 C94.5721649,55.6232323 94.2896907,42.5656566 86.0979381,34.2818182 L64.4886598,12.940404 C55.8731959,4.37575758 42.0319588,4.37575758 33.557732,12.940404 L12.0896907,34.2818182 C3.61546392,42.8464646 3.61546392,56.6060606 12.0896907,65.030303 L33.557732,86.3717172 C42.1731959,94.9363636 56.014433,94.9363636 64.4886598,86.3717172 L77.7649485,73.3141414 L77.7649485,73.3141414 Z" id="Shape" fill="url(#linearGradient-5)" sketch:type="MSShapeGroup"></path>
                <path d="M77.7649485,73.3141414 L86.9453608,82.440404 L86.9453608,64.1878788 C94.5721649,55.6232323 94.2896907,42.5656566 86.0979381,34.2818182 L64.4886598,12.940404 C55.8731959,4.37575758 42.0319588,4.37575758 33.557732,12.940404 L12.0896907,34.2818182 C3.61546392,42.8464646 3.61546392,56.6060606 12.0896907,65.030303 L33.557732,86.3717172 C42.1731959,94.9363636 56.014433,94.9363636 64.4886598,86.3717172 L77.7649485,73.3141414 L77.7649485,73.3141414 Z" id="Shape" fill="url(#linearGradient-5)" sketch:type="MSShapeGroup"></path>
                <path d="M76.7762887,69.2424242 L86.8041237,79.2111111 L87.5103093,63.6262626 C96.5494845,52.3939394 89.9113402,43.2676768 82.4257732,35.8262626 L63.0762887,16.5909091 C55.3082474,8.86868687 42.8793814,8.86868687 35.1113402,16.5909091 L15.7618557,35.8262626 C7.99381443,43.5484848 7.99381443,55.9040404 15.7618557,63.6262626 L35.1113402,82.8616162 C42.8793814,90.5838384 55.3082474,90.5838384 63.0762887,82.8616162 L76.7762887,69.2424242 L76.7762887,69.2424242 Z" id="Shape" fill="url(#linearGradient-6)" sketch:type="MSShapeGroup"></path>
                <g transform="translate(4.886598, 6.060606)" id="Shape" sketch:type="MSShapeGroup">
                    <path d="M5.79072165,29.7656566 C6.07319588,29.2040404 6.49690722,28.7828283 6.92061856,28.3616162 C13.5587629,21.7626263 20.1969072,15.1636364 26.9762887,8.42424242 C28.3886598,7.02020202 29.8010309,5.47575758 31.4958763,4.35252525 C34.3206186,2.24646465 37.5690722,0.982828283 40.9587629,0.421212121 C42.2298969,0.280808081 43.5010309,0.14040404 44.7721649,0.14040404 C49.5742268,0.280808081 53.9525773,1.68484848 57.9072165,4.63333333 C58.4721649,5.05454545 59.0371134,5.61616162 59.6020619,6.03737374 C67.0876289,13.4787879 74.5731959,20.920202 82.0587629,28.3616162 C85.0247423,31.310101 86.7195876,34.820202 87.5670103,38.8919192 C87.8494845,40.5767677 88.1319588,42.2616162 87.9907216,43.9464646 C87.8494845,45.4909091 87.7082474,47.0353535 87.2845361,48.579798 C87.143299,48.4393939 87.143299,48.1585859 87.143299,48.0181818 C87.2845361,46.3333333 87.2845361,44.6484848 86.8608247,42.8232323 C86.4371134,40.7171717 85.4484536,38.7515152 84.3185567,36.9262626 C82.7649485,34.5393939 81.0701031,32.4333333 79.0927835,30.4676768 C77.8216495,29.2040404 76.5505155,27.940404 75.2793814,26.6767677 C71.1835052,22.6050505 67.0876289,18.5333333 62.9917526,14.4616162 C61.4381443,12.9171717 59.8845361,11.3727273 58.3309278,9.82828283 C55.3649485,6.87979798 51.6927835,5.19494949 47.5969072,4.49292929 C44.4896907,4.07171717 41.5237113,4.35252525 38.557732,5.33535354 C37.9927835,5.47575758 37.2865979,5.47575758 36.7216495,5.61616162 C33.0494845,6.17777778 29.6597938,7.44141414 26.6938144,9.68787879 C25.9876289,10.1090909 25.4226804,10.6707071 24.857732,11.0919192 C23.5865979,12.3555556 22.1742268,13.759596 20.9030928,15.0232323 C18.5020619,17.410101 16.1010309,19.7969697 13.7,22.1838384 C11.7226804,24.1494949 9.88659794,25.9747475 7.90927835,27.940404 C7.48556701,28.3616162 7.06185567,28.7828283 6.49690722,29.3444444 C6.07319588,29.6252525 5.93195876,29.9060606 5.79072165,29.7656566 L5.79072165,29.7656566 Z" fill="#92FEFE"></path>
                    <path d="M87.2845361,45.210101 C87.2845361,44.3676768 87.143299,43.5252525 86.8608247,42.8232323 C86.5783505,41.4191919 86.0134021,40.1555556 85.4484536,38.8919192 C83.8948454,35.9434343 81.9175258,33.4161616 79.657732,31.169697 C78.2453608,29.7656566 76.8329897,28.3616162 75.2793814,26.8171717 L75.2793814,26.8171717 C75.1381443,26.6767677 75.1381443,26.5363636 74.9969072,26.5363636 C71.042268,22.6050505 67.228866,18.8141414 63.2742268,14.8828283 C63.1329897,14.7424242 62.9917526,14.7424242 62.9917526,14.6020202 L62.9917526,14.6020202 C61.5793814,13.1979798 60.1670103,11.9343434 58.8958763,10.530303 C57.2010309,8.70505051 55.0824742,7.3010101 52.8226804,6.17777778 C50.4216495,5.05454545 47.8793814,4.49292929 45.1958763,4.35252525 C44.0659794,4.35252525 42.9360825,4.35252525 41.8061856,4.63333333 C40.6762887,4.77373737 39.5463918,4.91414141 38.557732,5.47575758 C40.1113402,5.47575758 41.5237113,5.61616162 43.0773196,5.75656566 C46.4670103,6.31818182 49.5742268,7.58181818 52.3989691,9.54747475 C53.1051546,10.1090909 53.8113402,10.530303 54.3762887,11.2323232 C54.5175258,11.3727273 54.6587629,11.5131313 54.9412371,11.6535354 C56.071134,12.6363636 57.0597938,13.759596 58.1896907,14.7424242 C58.7546392,15.3040404 59.1783505,15.8656566 59.743299,16.4272727 C61.2969072,17.9717172 62.8505155,19.5161616 64.4041237,20.920202 C65.2515464,21.7626263 65.957732,22.4646465 66.8051546,23.3070707 C67.0876289,23.5878788 67.228866,23.7282828 67.5113402,24.0090909 C68.5,24.9919192 69.6298969,25.9747475 70.6185567,26.9575758 L70.6185567,26.9575758 C71.1835052,27.5191919 71.7484536,28.2212121 72.4546392,28.7828283 C72.4546392,29.0636364 72.7371134,29.2040404 72.8783505,29.3444444 C73.8670103,30.3272727 74.8556701,31.310101 75.8443299,32.2929293 C76.2680412,32.7141414 76.8329897,33.2757576 77.256701,33.6969697 C78.5278351,35.1010101 79.657732,36.6454545 80.5051546,38.330303 C81.2113402,39.5939394 81.6350515,40.8575758 82.0587629,42.2616162 C82.0587629,42.4020202 82.0587629,42.6828283 82.3412371,42.6828283 C82.2,42.8232323 82.3412371,43.1040404 82.3412371,43.3848485 C82.4824742,44.3676768 82.7649485,45.3505051 82.9061856,46.3333333 L82.9061856,46.8949495 C83.1886598,49.0010101 82.9061856,50.9666667 82.4824742,53.0727273 C82.2,53.6343434 82.2,54.3363636 82.0587629,54.8979798 C81.7762887,56.0212121 81.2113402,57.0040404 80.928866,57.9868687 L80.928866,58.1272727 C80.6463918,58.1272727 80.6463918,58.4080808 80.5051546,58.5484848 C79.7989691,59.8121212 78.9515464,61.0757576 77.9628866,62.1989899 C77.6804124,62.479798 77.5391753,62.7606061 77.3979381,63.0414141 L77.3979381,65.1474747 C77.3979381,66.130303 77.256701,67.1131313 77.256701,68.0959596 L77.256701,71.3252525 L77.3979381,71.4656566 C77.6804124,71.3252525 77.6804124,70.3424242 77.6804124,70.2020202 L77.6804124,68.2363636 C77.8216495,68.3767677 77.9628866,68.5171717 78.1041237,68.6575758 C79.3752577,69.9212121 80.6463918,71.1848485 81.7762887,72.3080808 C81.9175258,72.4484848 82.0587629,72.5888889 82.2,72.7292929 C82.3412371,72.869697 82.4824742,72.7292929 82.4824742,72.5888889 L82.4824742,67.2535354 C82.6237113,64.5858586 82.6237113,61.7777778 82.6237113,59.110101 C82.6237113,58.8292929 82.6237113,58.5484848 82.4824742,58.2676768 L82.4824742,58.2676768 C82.7649485,57.8464646 82.9061856,57.4252525 83.1886598,57.1444444 C83.471134,56.7232323 83.8948454,56.3020202 84.1773196,55.8808081 C85.7309278,53.7747475 86.8608247,51.3878788 87.4257732,48.720202 C87.4257732,47.5969697 87.4257732,46.3333333 87.2845361,45.210101 L87.2845361,45.210101 Z" fill="#70F9FE"></path>
                    <path d="M77.1154639,71.3252525 C77.256701,70.7636364 77.1154639,68.3767677 77.256701,67.9555556 C77.5391753,67.9555556 77.8216495,68.2363636 77.9628866,68.3767677 C79.3752577,69.7808081 80.6463918,71.0444444 82.0587629,72.4484848 C82.2,72.5888889 82.3412371,72.7292929 82.4824742,72.869697 C82.6237113,73.8525253 82.4824742,74.8353535 82.4824742,75.6777778 C82.4824742,75.8181818 82.4824742,75.8181818 82.3412371,75.8181818 C80.6463918,74.1333333 78.6690722,73.010101 77.1154639,71.3252525 L77.1154639,71.3252525 Z" fill="#93FEFE"></path>
                    <path d="M64.2628866,75.6777778 C64.1216495,75.6777778 63.9804124,75.8181818 63.8391753,75.8181818 C62.9917526,76.6606061 62.1443299,77.6434343 61.1556701,78.3454545 C60.1670103,79.1878788 59.0371134,79.889899 57.9072165,80.4515152 C56.6360825,81.0131313 55.5061856,81.7151515 54.2350515,82.1363636 C50.2804124,83.4 46.3257732,83.540404 42.371134,82.5575758 C41.2412371,82.2767677 40.2525773,81.8555556 39.1226804,81.5747475 C38.9814433,81.5747475 38.6989691,81.4343434 38.557732,81.4343434 C36.7216495,80.8727273 35.0268041,80.030303 33.3319588,79.0474747 C33.1907216,78.9070707 32.9082474,78.7666667 32.7670103,78.7666667 C32.7670103,78.4858586 32.4845361,78.4858586 32.343299,78.3454545 C31.6371134,77.9242424 31.0721649,77.2222222 30.3659794,76.6606061 C28.9536082,75.2565657 27.5412371,73.9929293 26.2701031,72.5888889 C25.8463918,72.3080808 25.7051546,71.8868687 25.2814433,71.7464646 L25.2814433,71.7464646 C25.4226804,71.4656566 25.1402062,71.3252525 24.9989691,71.1848485 C22.8804124,69.0787879 20.7618557,66.9727273 18.5020619,64.7262626 C18.2195876,64.5858586 18.2195876,64.1646465 17.7958763,64.3050505 L17.7958763,64.3050505 L17.7958763,64.0242424 C17.6546392,63.8838384 17.5134021,63.7434343 17.3721649,63.6030303 C15.8185567,62.0585859 14.2649485,60.5141414 12.8525773,59.110101 C11.5814433,57.8464646 10.3103093,56.5828283 9.32164948,55.1787879 C9.18041237,55.0383838 9.18041237,54.8979798 8.89793814,54.8979798 C8.89793814,54.6171717 8.75670103,54.4767677 8.61546392,54.3363636 C7.76804124,52.9323232 7.06185567,51.5282828 6.49690722,49.9838384 C6.3556701,49.4222222 6.07319588,49.0010101 5.93195876,48.4393939 C5.93195876,48.2989899 5.79072165,48.1585859 5.64948454,48.0181818 C5.64948454,47.8777778 5.64948454,47.7373737 5.50824742,47.4565657 C5.36701031,47.0353535 5.2257732,46.6141414 5.08453608,46.1929293 C4.66082474,44.7888889 4.37835052,43.2444444 4.2371134,41.7 C4.2371134,41.559596 4.2371134,41.2787879 3.95463918,41.1383838 C4.09587629,40.9979798 4.09587629,40.8575758 4.09587629,40.7171717 L4.09587629,39.4535354 L4.09587629,38.6111111 L4.09587629,38.4707071 C4.09587629,37.4878788 4.37835052,36.3646465 4.51958763,35.3818182 C4.51958763,35.2414141 4.66082474,34.9606061 4.51958763,34.820202 C4.94329897,34.1181818 5.08453608,33.4161616 5.36701031,32.7141414 C5.79072165,31.310101 6.49690722,30.0464646 7.20309278,28.7828283 C7.20309278,28.6424242 7.3443299,28.5020202 7.20309278,28.3616162 C6.49690722,28.9232323 6.07319588,29.6252525 5.36701031,30.0464646 C4.09587629,31.4505051 3.24845361,32.9949495 2.54226804,34.820202 L2.54226804,34.820202 C1.55360825,36.9262626 0.988659794,39.1727273 0.84742268,41.559596 L0.84742268,41.559596 L0.84742268,42.2616162 C0.706185567,42.4020202 0.84742268,42.6828283 0.84742268,42.9636364 L0.84742268,44.2272727 C0.988659794,44.5080808 0.84742268,44.6484848 0.84742268,44.9292929 C0.84742268,46.1929293 0.988659794,47.4565657 1.41237113,48.579798 L1.41237113,48.579798 C1.97731959,50.9666667 2.96597938,53.3535354 4.2371134,55.3191919 L4.2371134,55.3191919 C4.80206186,56.3020202 5.50824742,57.1444444 6.21443299,57.9868687 C8.19175258,60.0929293 10.3103093,62.0585859 12.2876289,64.1646465 C12.428866,64.3050505 12.5701031,64.4454545 12.7113402,64.4454545 C15.1123711,66.8323232 17.3721649,69.2191919 19.7731959,71.4656566 C19.914433,71.6060606 20.1969072,71.8868687 20.3381443,72.0272727 C22.7391753,74.4141414 25.1402062,76.8010101 27.5412371,79.1878788 L27.5412371,79.1878788 C28.5298969,80.3111111 29.8010309,81.4343434 31.0721649,82.2767677 C35.4505155,85.5060606 40.5350515,86.910101 46.043299,86.4888889 C48.7268041,86.2080808 51.4103093,85.6464646 53.8113402,84.3828283 C55.7886598,83.4 57.6247423,82.1363636 59.3195876,80.5919192 C61.014433,79.1878788 62.7092784,77.5030303 64.2628866,75.6777778 C64.2628866,75.8181818 64.2628866,75.8181818 64.2628866,75.6777778 C64.2628866,75.8181818 64.2628866,75.6777778 64.2628866,75.6777778 L64.2628866,75.6777778 Z" fill="#56EDFE"></path>
                </g>
            </g>
        </g>
    </g>
</svg>